<svg width="30" height="30" viewBox="0 0 30 30" fill="none" xmlns="http://www.w3.org/2000/svg">
<path d="M27.6562 2.8125H2.34375C1.97092 2.81293 1.61349 2.96123 1.34986 3.22486C1.08623 3.48849 0.937934 3.84592 0.9375 4.21875V25.7812C0.937934 26.1541 1.08623 26.5115 1.34986 26.7751C1.61349 27.0388 1.97092 27.1871 2.34375 27.1875H7.5V23.7409C7.5001 23.532 7.55601 23.3269 7.66195 23.1469C7.76789 22.9668 7.92001 22.8183 8.10258 22.7168L13.492 19.7213L11.7188 15.2882V11.7188C11.7188 10.8485 12.0645 10.0139 12.6798 9.39856C13.2952 8.7832 14.1298 8.4375 15 8.4375C15.8702 8.4375 16.7048 8.7832 17.3202 9.39856C17.9355 10.0139 18.2812 10.8485 18.2812 11.7188V15.2882L16.508 19.7211L21.8974 22.7168C22.08 22.8183 22.2321 22.9668 22.338 23.1469C22.444 23.3269 22.4999 23.532 22.5 23.7409V27.1875H27.6562C28.0291 27.1871 28.3865 27.0388 28.6501 26.7751C28.9138 26.5115 29.0621 26.1541 29.0625 25.7812V4.21875C29.0621 3.84592 28.9138 3.48849 28.6501 3.22486C28.3865 2.96123 28.0291 2.81293 27.6562 2.8125ZM27.1875 25.3125H24.375V23.7409C24.3748 23.1977 24.2295 22.6644 23.9541 22.1961C23.6786 21.7279 23.2831 21.3418 22.8083 21.0778L18.8622 18.8848L20.1562 15.6493V11.7188C20.1562 10.3512 19.613 9.03971 18.646 8.07273C17.679 7.10575 16.3675 6.5625 15 6.5625C13.6325 6.5625 12.321 7.10575 11.354 8.07273C10.387 9.03971 9.84375 10.3512 9.84375 11.7188V15.6493L11.1378 18.8848L7.19168 21.078C6.71699 21.3421 6.32146 21.7281 6.04602 22.1963C5.77057 22.6645 5.62522 23.1977 5.625 23.7409V25.3125H2.8125V4.6875H27.1875V25.3125Z" fill="white"/>
</svg>
